<svg width="68" height="68" viewBox="0 0 68 68" fill="none" xmlns="http://www.w3.org/2000/svg">
<path d="M28.0444 6.68285C29.5591 0.439294 38.4409 0.439294 39.9556 6.68285C40.1828 7.6208 40.6283 8.49184 41.2559 9.22507C41.8834 9.9583 42.6752 10.533 43.5668 10.9024C44.4584 11.2718 45.4246 11.4254 46.3868 11.3508C47.349 11.2762 48.28 10.9755 49.104 10.4731C54.5902 7.13085 60.8729 13.41 57.5307 18.8997C57.029 19.7234 56.7287 20.6538 56.6543 21.6154C56.5798 22.5769 56.7334 23.5425 57.1023 24.4335C57.4713 25.3246 58.0453 26.116 58.7777 26.7435C59.5101 27.3709 60.3802 27.8167 61.3173 28.0446C67.5609 29.5593 67.5609 38.4411 61.3173 39.9557C60.3794 40.183 59.5083 40.6285 58.7751 41.256C58.0419 41.8836 57.4672 42.6753 57.0978 43.5669C56.7284 44.4585 56.5747 45.4248 56.6494 46.387C56.724 47.3492 57.0247 48.2802 57.5271 49.1042C60.8693 54.5904 54.5902 60.8731 49.1004 57.5308C48.2768 57.0292 47.3464 56.7289 46.3848 56.6545C45.4233 56.58 44.4577 56.7335 43.5667 57.1025C42.6756 57.4715 41.8842 58.0455 41.2567 58.7779C40.6292 59.5103 40.1834 60.3804 39.9556 61.3175C38.4409 67.5611 29.5591 67.5611 28.0444 61.3175C27.8172 60.3796 27.3717 59.5085 26.7441 58.7753C26.1166 58.0421 25.3248 57.4674 24.4332 57.098C23.5416 56.7286 22.5754 56.5749 21.6132 56.6495C20.651 56.7241 19.72 57.0249 18.896 57.5273C13.4098 60.8695 7.12711 54.5904 10.4693 49.1006C10.971 48.277 11.2713 47.3465 11.3457 46.385C11.4201 45.4234 11.2666 44.4579 10.8977 43.5668C10.5287 42.6758 9.9547 41.8843 9.2223 41.2569C8.4899 40.6294 7.61978 40.1836 6.68267 39.9557C0.439111 38.4411 0.439111 29.5593 6.68267 28.0446C7.62062 27.8174 8.49166 27.3718 9.22489 26.7443C9.95812 26.1168 10.5328 25.325 10.9022 24.4334C11.2716 23.5418 11.4252 22.5756 11.3506 21.6134C11.276 20.6512 10.9753 19.7202 10.4729 18.8962C7.13067 13.41 13.4098 7.12729 18.8996 10.4695C22.4551 12.6313 27.0631 10.7184 28.0444 6.68285Z" stroke="#0A0A0A" stroke-width="4" stroke-linecap="round" stroke-linejoin="round"/>
<path d="M28 24.0002V44.0002L44.6667 34.0002L28 24.0002Z" stroke="#0A0A0A" stroke-width="4" stroke-linecap="round" stroke-linejoin="round"/>
</svg>
