<svg width="64" height="64" viewBox="0 0 64 64" fill="none" xmlns="http://www.w3.org/2000/svg">
<path d="M56.0974 29.4377C58.005 19.0317 49.9881 9.50018 39.5 9.50018C33.4394 9.50018 28.0159 12.7153 25.0273 17.6919C20.9508 16.3747 16.7593 16.9361 13.306 19.3133C9.85462 21.6892 7.79338 25.4509 7.6265 29.5653C3.01475 31.7379 0 36.3299 0 41.3752C0 42.2393 0.08475 43.1037 0.25175 43.9446C1.46662 50.0608 6.8805 54.5002 13.125 54.5002H50.75C58.056 54.5002 64 48.6123 64 41.3752C64 36.2109 60.8669 31.5493 56.0974 29.4377ZM50.75 50.7502H13.125C8 50.7502 3.75 46.5958 3.75 41.3752C3.75 37.4689 6.31712 33.9352 10.138 32.5821L11.4692 32.1106L11.3836 30.7008C11.1823 27.3883 12.6959 24.2859 15.4325 22.4021C18.3264 20.4098 21.8765 20.2722 25.1261 21.7457L26.8151 22.5116L27.5995 20.8311C29.749 16.2259 34.4202 13.2502 39.5 13.2502C46.7371 13.2502 52.625 19.1381 52.625 26.3752C52.625 28.5159 52.1734 29.8121 51.674 31.5282C53.0721 32.2539 53.2984 32.3884 53.7691 32.5497C57.6455 33.8774 60.25 37.4242 60.25 41.3752C60.25 46.5446 55.9883 50.7502 50.75 50.7502Z" fill="#0A0A0A"/>
</svg>
