<svg width="64" height="64" viewBox="0 0 64 64" fill="none" xmlns="http://www.w3.org/2000/svg">
<path d="M28 33.1802L22.82 28.0002L20 30.8202L28 38.8202L44 22.8202L41.18 20.0002L28 33.1802Z" fill="#0A0A0A"/>
<path d="M32 60.0002L19.648 53.4142C16.1267 51.5408 13.1819 48.7439 11.1299 45.3236C9.07776 41.9034 7.99577 37.9888 8.00001 34.0002V8.00018C8.00107 6.93964 8.42284 5.92284 9.17276 5.17293C9.92267 4.42301 10.9395 4.00124 12 4.00018H52C53.0606 4.00124 54.0774 4.42301 54.8273 5.17293C55.5772 5.92284 55.999 6.93964 56 8.00018V34.0002C56.0042 37.9888 54.9223 41.9034 52.8702 45.3236C50.8181 48.7439 47.8733 51.5408 44.352 53.4142L32 60.0002ZM12 8.00018V34.0002C11.9967 37.2638 12.8822 40.4667 14.5615 43.2651C16.2409 46.0635 18.6506 48.3517 21.532 49.8842L32 55.4662L42.468 49.8862C45.3498 48.3536 47.7597 46.065 49.439 43.2662C51.1183 40.4674 52.0037 37.2641 52 34.0002V8.00018H12Z" fill="#0A0A0A"/>
</svg>
