<svg width="64" height="64" viewBox="0 0 64 64" fill="none" xmlns="http://www.w3.org/2000/svg">
<path d="M41.5 18.8752H22.5V22.5002H20.625V26.2502H22.5V30.1252H20.625V33.8752H22.5V37.7502H20.625V41.5002H22.5V45.1252H41.5V41.5002H43.375V37.7502H41.5V33.8752H43.375V30.1252H41.5V26.2502H43.375V22.5002H41.5V18.8752ZM37.75 33.8752H26.25V30.1252H37.75V33.8752ZM37.75 41.3752H26.25V37.6252H37.75V41.3752ZM26.25 26.3752V22.6252H37.75V26.3752H26.25Z" fill="#0A0A0A"/>
<path d="M62.936 39.1759C62.3101 36.7931 61.4224 34.3835 60.3013 31.9855C64.1729 23.694 65.125 15.5265 62.5191 9.42155C63.4331 8.42106 63.9912 7.09098 63.9912 5.63249C63.9912 2.53141 61.4688 0.00894989 58.3677 0.00894989C56.9092 0.00894989 55.5786 0.567055 54.5781 1.48112C48.4736 -1.12484 40.3062 -0.172691 32.0146 3.69889C29.6167 2.5778 27.2065 1.6901 24.8242 1.06364C16.3735 -1.15658 9.2163 0.124184 4.6704 4.67008C0.124015 9.21647 -1.15675 16.3737 1.06396 24.8239C1.68993 27.2072 2.57763 29.6169 3.69872 32.0148C-0.17286 40.3063 -1.12501 48.4733 1.48095 54.5783C0.566886 55.5788 0.00878058 56.9094 0.00878058 58.3679C0.00878058 61.4684 2.53124 63.9914 5.63232 63.9914C7.0913 63.9914 8.42187 63.4328 9.42236 62.5182C11.7368 63.5065 14.3467 63.9846 17.1489 63.9846C21.7373 63.9846 26.8374 62.7053 31.9854 60.3014C34.3833 61.4225 36.7935 62.3102 39.1758 62.9362C41.8848 63.6481 44.4605 64.0002 46.8604 64.0002C51.9463 64.0002 56.2412 62.4186 59.3296 59.3298C63.876 54.7839 65.1567 47.6261 62.936 39.1759ZM58.3677 3.75797C59.4014 3.75797 60.2422 4.59879 60.2422 5.63249C60.2422 6.66569 59.4014 7.50651 58.3677 7.50651C57.334 7.50651 56.4932 6.66569 56.4932 5.63249C56.4932 4.59879 57.334 3.75797 58.3677 3.75797ZM37.9092 5.35417C43.6611 3.42643 48.8774 3.24674 52.8057 4.80631C52.7656 5.07633 52.7441 5.35172 52.7441 5.63249C52.7441 8.73307 55.2671 11.256 58.3677 11.256C58.6484 11.256 58.9238 11.2345 59.1939 11.195C60.7534 15.1227 60.5732 20.3385 58.646 26.0915C58.4644 26.6344 58.2661 27.1789 58.0552 27.7248C55.5444 23.4543 52.3149 19.3 48.5078 15.4924C44.7007 11.6852 40.5459 8.45573 36.2759 5.94499C36.8213 5.73405 37.3662 5.53581 37.9092 5.35417ZM56.1299 31.9889C53.6328 36.8273 50.1089 41.6047 45.8569 45.8571C41.6045 50.1091 36.8267 53.633 31.9888 56.1301C27.1777 53.6506 22.4365 50.1506 18.1431 45.8571C13.8496 41.5632 10.3496 36.8224 7.87011 32.0109C10.3672 27.173 13.8906 22.3957 18.1431 18.1432C22.3955 13.8913 27.1728 10.3674 32.0112 7.87028C36.8223 10.3498 41.5635 13.8498 45.8569 18.1432C50.1504 22.4367 53.6504 27.1774 56.1299 31.9889ZM4.68945 23.8713C2.82177 16.7633 3.75634 10.8859 7.32128 7.32145C9.68554 4.9567 13.0669 3.74967 17.1509 3.74967C19.2236 3.74967 21.478 4.0612 23.8711 4.68961C25.1543 5.02702 26.4473 5.44938 27.7437 5.9484C23.5195 8.42643 19.3496 11.6349 15.4922 15.4924C11.6348 19.3498 8.42626 23.5197 5.94824 27.7438C5.44921 26.4474 5.02685 25.1545 4.68945 23.8713ZM5.63232 60.2424C4.59863 60.2424 3.7578 59.4015 3.7578 58.3679C3.7578 57.3342 4.59863 56.4933 5.63232 56.4933C6.66601 56.4933 7.50683 57.3342 7.50683 58.3679C7.50683 59.4015 6.66552 60.2424 5.63232 60.2424ZM26.0908 58.6462C20.3384 60.5734 15.1226 60.7536 11.1943 59.194C11.2344 58.924 11.2559 58.6486 11.2559 58.3679C11.2559 55.2673 8.7329 52.7443 5.63232 52.7443C5.35156 52.7443 5.07568 52.7658 4.80614 52.8058C3.24657 48.8776 3.42626 43.6618 5.35351 37.9093C5.53564 37.3659 5.73388 36.8215 5.94482 36.2756C8.45556 40.5461 11.6851 44.7004 15.4922 48.508C19.2993 52.3151 23.4536 55.5446 27.7241 58.0554C27.1787 58.2663 26.6338 58.4645 26.0908 58.6462ZM56.6787 56.6789C53.1143 60.2433 47.2368 61.1784 40.1289 59.3107C38.8462 58.9733 37.5532 58.5514 36.2578 58.0524C40.4814 55.5744 44.6509 52.3649 48.5078 48.508C52.3652 44.6506 55.5737 40.4806 58.0518 36.2565C58.5508 37.5524 58.9732 38.8459 59.3106 40.1286C61.1782 47.237 60.2437 53.1144 56.6787 56.6789Z" fill="#0A0A0A"/>
</svg>
