<svg width="32" height="50" viewBox="0 0 32 50" fill="none" xmlns="http://www.w3.org/2000/svg">
<path fill-rule="evenodd" clip-rule="evenodd" d="M23.8615 3.07083C22.1244 1.03322 19.4795 0 16.0001 0C12.5207 0 9.87576 1.03322 8.13868 3.07083C6.3921 5.11959 6.13135 7.51986 6.13135 8.76834V23.2317C6.13135 24.4802 6.3921 26.8805 8.13868 28.9292C9.87576 30.9668 12.5207 32 16.0001 32C19.4795 32 22.1244 30.9668 23.8615 28.9292C25.6081 26.8805 25.8688 24.4802 25.8688 23.2317V8.76834C25.8688 7.51986 25.6081 5.11959 23.8615 3.07083ZM14.6926 9.84086C14.6926 10.5619 15.2791 11.1484 16.0001 11.1484C16.7211 11.1484 17.3076 10.5619 17.3076 9.84086V7.0389C17.3076 6.3179 16.7211 5.73137 16.0001 5.73137C15.2791 5.73137 14.6926 6.3179 14.6926 7.0389V9.84086ZM16.0001 30.9677C24.4106 30.9677 24.8365 24.5235 24.8365 23.2317V8.76834C24.8365 7.50355 24.427 1.30065 16.5162 1.04162V4.7572C17.5588 4.99296 18.3399 5.92606 18.3399 7.0389V9.84086C18.3399 10.9537 17.5588 11.8868 16.5162 12.1226V16.3636C16.5162 16.6487 16.2852 16.8798 16.0001 16.8798C15.715 16.8798 15.4839 16.6487 15.4839 16.3636V12.1226C14.4414 11.8868 13.6603 10.9537 13.6603 9.84086V7.0389C13.6603 5.92606 14.4414 4.99296 15.4839 4.7572V1.04162C7.57327 1.30058 7.16361 7.50355 7.16361 8.76834V23.2317C7.16361 24.5235 7.58958 30.9677 16.0001 30.9677Z" fill="#0A0A0A"/>
<line x1="10.7071" y1="43.6567" x2="15.6569" y2="48.6065" stroke="#0A0A0A" stroke-linecap="round"/>
<line x1="20.6064" y1="43.6568" x2="15.6567" y2="48.6066" stroke="#0A0A0A" stroke-linecap="round"/>
</svg>
