<svg width="64" height="64" viewBox="0 0 64 64" fill="none" xmlns="http://www.w3.org/2000/svg">
<path d="M32 64C14.3547 64 0 49.6453 0 32C0 14.3547 14.3547 0 32 0C49.6453 0 64 14.3547 64 32C64 49.6453 49.6453 64 32 64ZM32 4C16.56 4 4 16.56 4 32C4 47.44 16.56 60 32 60C47.44 60 60 47.44 60 32C60 16.56 47.44 4 32 4Z" fill="#0A0A0A"/>
<path d="M19.3333 42C18.8213 42 18.3093 41.8053 17.92 41.4133L9.91998 33.4133C9.13865 32.632 9.13865 31.3653 9.91998 30.584L17.92 22.584C18.7013 21.8027 19.968 21.8027 20.7493 22.584C21.5306 23.3653 21.5306 24.632 20.7493 25.4133L14.1626 32L20.7493 38.5867C21.5306 39.368 21.5306 40.6347 20.7493 41.416C20.3573 41.8053 19.8453 42 19.3333 42Z" fill="#0A0A0A"/>
<path d="M28.6668 45.3333C28.4802 45.3333 28.2882 45.3066 28.1015 45.2533C27.0428 44.9413 26.4348 43.8293 26.7468 42.7706L33.4135 20.104C33.7282 19.0427 34.8482 18.4453 35.8962 18.7493C36.9548 19.0613 37.5628 20.1733 37.2508 21.232L30.5842 43.8986C30.3308 44.7706 29.5308 45.3333 28.6668 45.3333Z" fill="#0A0A0A"/>
<path d="M44.6663 42C44.1543 42 43.6423 41.8053 43.253 41.4133C42.4717 40.632 42.4717 39.3653 43.253 38.584L49.8397 31.9973L43.253 25.4107C42.4717 24.6293 42.4717 23.3627 43.253 22.5813C44.0343 21.8 45.301 21.8 46.0823 22.5813L54.0823 30.5813C54.8637 31.3627 54.8637 32.6293 54.0823 33.4107L46.0823 41.4107C45.6903 41.8053 45.1783 42 44.6663 42Z" fill="#0A0A0A"/>
</svg>
