<svg width="64" height="64" viewBox="0 0 64 64" fill="none" xmlns="http://www.w3.org/2000/svg">
<path d="M49.9997 8C51.1378 8 52.2648 8.22417 53.3163 8.65971C54.3678 9.09525 55.3232 9.73363 56.1279 10.5384C56.9327 11.3432 57.5711 12.2986 58.0066 13.3501C58.4422 14.4016 58.6663 15.5285 58.6663 16.6667V47.3333C58.6663 48.4715 58.4422 49.5984 58.0066 50.6499C57.5711 51.7014 56.9327 52.6568 56.1279 53.4616C55.3232 54.2664 54.3678 54.9048 53.3163 55.3403C52.2648 55.7758 51.1378 56 49.9997 56H13.9997C11.7011 56 9.49673 55.0869 7.87142 53.4616C6.2461 51.8363 5.33301 49.6319 5.33301 47.3333V16.6667C5.33301 14.3681 6.2461 12.1637 7.87142 10.5384C9.49673 8.91309 11.7011 8 13.9997 8H49.9997ZM49.9997 12H13.9997C12.762 12 11.575 12.4917 10.6998 13.3668C9.82467 14.242 9.33301 15.429 9.33301 16.6667V47.3333C9.33301 49.9093 11.4237 52 13.9997 52H49.9997C51.2374 52 52.4243 51.5083 53.2995 50.6332C54.1747 49.758 54.6663 48.571 54.6663 47.3333V16.6667C54.6663 15.429 54.1747 14.242 53.2995 13.3668C52.4243 12.4917 51.2374 12 49.9997 12ZM17.9943 17.3333H46.0103C46.5171 17.3335 47.0048 17.526 47.3751 17.8719C47.7454 18.2179 47.9705 18.6915 48.0051 19.197C48.0396 19.7026 47.881 20.2024 47.5612 20.5955C47.2414 20.9885 46.7843 21.2456 46.2823 21.3147L46.0103 21.3333H17.9943C17.4878 21.3325 17.0005 21.1395 16.6308 20.7934C16.261 20.4472 16.0363 19.9737 16.0022 19.4683C15.968 18.963 16.1268 18.4635 16.4466 18.0707C16.7663 17.6779 17.2232 17.421 17.725 17.352L17.9943 17.3333H46.0103H17.9943Z" fill="#0A0A0A"/>
</svg>
